<svg xmlns="http://www.w3.org/2000/svg" width="1024" height="1024" viewBox="0 0 1024 1024">
<defs>
  <linearGradient id="bg" x1="0%" y1="0%" x2="100%" y2="100%">
    <stop offset="0%" stop-color="#0F172A"/>
    <stop offset="100%" stop-color="#1E3A8A"/>
  </linearGradient>
  <linearGradient id="iconGrad" x1="0%" y1="0%" x2="100%" y2="100%">
    <stop offset="0%" stop-color="#FFFFFF"/>
    <stop offset="100%" stop-color="#67E8F9"/>
  </linearGradient>
</defs>
<rect x="32" y="32" width="960" height="960" rx="220" fill="url(#bg)"/>
<g transform="translate(212 138) scale(5)">
  <path d="M60 7 L108 29 V66 C108 101 88 122 60 136 C32 122 12 101 12 66 V29 Z"
        fill="none" stroke="url(#iconGrad)" stroke-width="10" stroke-linejoin="round"/>
  <path d="M27 76 L47 55 L66 73 L92 44"
        fill="none" stroke="#22D3EE" stroke-width="7" stroke-linecap="round" stroke-linejoin="round"/>
  <circle cx="27" cy="76" r="5.5" fill="#0F172A" stroke="#FFFFFF" stroke-width="4"/>
  <circle cx="47" cy="55" r="5.5" fill="#22D3EE"/>
  <circle cx="66" cy="73" r="5.5" fill="#22D3EE"/>
  <circle cx="92" cy="44" r="6" fill="#22D3EE"/>
  <path d="M42 96 L55 109 L80 84"
        fill="none" stroke="#FFFFFF" stroke-width="8" stroke-linecap="round" stroke-linejoin="round"/>
</g>
</svg>